<mxfile host="app.diagrams.net" modified="2021-03-16T07:55:38.820Z" agent="5.0 (Windows NT 10.0; Win64; x64) AppleWebKit/537.36 (KHTML, like Gecko) Chrome/89.0.4389.82 Safari/537.36" etag="7oYhGlxd0p26Lg9VWP8G" version="14.4.8" type="github">
  <diagram id="C5RBs43oDa-KdzZeNtuy" name="Page-1">
    <mxGraphModel dx="1420" dy="762" grid="1" gridSize="10" guides="1" tooltips="1" connect="1" arrows="1" fold="1" page="1" pageScale="1" pageWidth="827" pageHeight="1169" math="0" shadow="0">
      <root>
        <mxCell id="WIyWlLk6GJQsqaUBKTNV-0" />
        <mxCell id="WIyWlLk6GJQsqaUBKTNV-1" parent="WIyWlLk6GJQsqaUBKTNV-0" />
        <mxCell id="J0-ND052Ys1qhIWFqs_n-14" style="edgeStyle=orthogonalEdgeStyle;rounded=0;orthogonalLoop=1;jettySize=auto;html=1;entryX=0;entryY=0.5;entryDx=0;entryDy=0;" parent="WIyWlLk6GJQsqaUBKTNV-1" source="J0-ND052Ys1qhIWFqs_n-4" target="J0-ND052Ys1qhIWFqs_n-13" edge="1">
          <mxGeometry relative="1" as="geometry" />
        </mxCell>
        <mxCell id="J0-ND052Ys1qhIWFqs_n-28" style="edgeStyle=orthogonalEdgeStyle;rounded=0;orthogonalLoop=1;jettySize=auto;html=1;entryX=0.5;entryY=0;entryDx=0;entryDy=0;" parent="WIyWlLk6GJQsqaUBKTNV-1" source="J0-ND052Ys1qhIWFqs_n-4" target="J0-ND052Ys1qhIWFqs_n-26" edge="1">
          <mxGeometry relative="1" as="geometry" />
        </mxCell>
        <mxCell id="J0-ND052Ys1qhIWFqs_n-4" value="DB" style="shape=cylinder3;whiteSpace=wrap;html=1;boundedLbl=1;backgroundOutline=1;size=15;" parent="WIyWlLk6GJQsqaUBKTNV-1" vertex="1">
          <mxGeometry x="185" y="280" width="70" height="80" as="geometry" />
        </mxCell>
        <mxCell id="J0-ND052Ys1qhIWFqs_n-6" style="edgeStyle=orthogonalEdgeStyle;rounded=0;orthogonalLoop=1;jettySize=auto;html=1;" parent="WIyWlLk6GJQsqaUBKTNV-1" source="J0-ND052Ys1qhIWFqs_n-5" target="J0-ND052Ys1qhIWFqs_n-4" edge="1">
          <mxGeometry relative="1" as="geometry" />
        </mxCell>
        <mxCell id="J0-ND052Ys1qhIWFqs_n-5" value="Preprocssing&lt;br&gt;Data" style="rounded=0;whiteSpace=wrap;html=1;" parent="WIyWlLk6GJQsqaUBKTNV-1" vertex="1">
          <mxGeometry x="175" y="190" width="90" height="60" as="geometry" />
        </mxCell>
        <mxCell id="J0-ND052Ys1qhIWFqs_n-41" style="edgeStyle=orthogonalEdgeStyle;rounded=0;orthogonalLoop=1;jettySize=auto;html=1;entryX=0;entryY=0.5;entryDx=0;entryDy=0;fontSize=14;" parent="WIyWlLk6GJQsqaUBKTNV-1" source="J0-ND052Ys1qhIWFqs_n-13" target="J0-ND052Ys1qhIWFqs_n-40" edge="1">
          <mxGeometry relative="1" as="geometry" />
        </mxCell>
        <mxCell id="J0-ND052Ys1qhIWFqs_n-13" value="Tokenizing" style="rounded=0;whiteSpace=wrap;html=1;" parent="WIyWlLk6GJQsqaUBKTNV-1" vertex="1">
          <mxGeometry x="323.5" y="290" width="90" height="60" as="geometry" />
        </mxCell>
        <mxCell id="J0-ND052Ys1qhIWFqs_n-43" style="edgeStyle=orthogonalEdgeStyle;rounded=0;orthogonalLoop=1;jettySize=auto;html=1;entryX=1;entryY=0.5;entryDx=0;entryDy=0;fontSize=14;" parent="WIyWlLk6GJQsqaUBKTNV-1" source="J0-ND052Ys1qhIWFqs_n-17" target="J0-ND052Ys1qhIWFqs_n-19" edge="1">
          <mxGeometry relative="1" as="geometry">
            <Array as="points">
              <mxPoint x="655" y="410" />
            </Array>
          </mxGeometry>
        </mxCell>
        <mxCell id="J0-ND052Ys1qhIWFqs_n-57" style="edgeStyle=orthogonalEdgeStyle;rounded=0;orthogonalLoop=1;jettySize=auto;html=1;entryX=0.5;entryY=0;entryDx=0;entryDy=0;fontSize=14;" parent="WIyWlLk6GJQsqaUBKTNV-1" source="J0-ND052Ys1qhIWFqs_n-17" target="J0-ND052Ys1qhIWFqs_n-55" edge="1">
          <mxGeometry relative="1" as="geometry" />
        </mxCell>
        <mxCell id="J0-ND052Ys1qhIWFqs_n-17" value="Sentence&lt;br&gt;Clustering&lt;br&gt;(K = 10)" style="rounded=0;whiteSpace=wrap;html=1;" parent="WIyWlLk6GJQsqaUBKTNV-1" vertex="1">
          <mxGeometry x="620" y="380" width="90" height="60" as="geometry" />
        </mxCell>
        <mxCell id="J0-ND052Ys1qhIWFqs_n-22" style="edgeStyle=orthogonalEdgeStyle;rounded=0;orthogonalLoop=1;jettySize=auto;html=1;entryX=1;entryY=0.5;entryDx=0;entryDy=0;" parent="WIyWlLk6GJQsqaUBKTNV-1" source="J0-ND052Ys1qhIWFqs_n-19" target="J0-ND052Ys1qhIWFqs_n-21" edge="1">
          <mxGeometry relative="1" as="geometry" />
        </mxCell>
        <mxCell id="J0-ND052Ys1qhIWFqs_n-19" value="Keyword Extraction" style="rounded=0;whiteSpace=wrap;html=1;" parent="WIyWlLk6GJQsqaUBKTNV-1" vertex="1">
          <mxGeometry x="470" y="380" width="90" height="60" as="geometry" />
        </mxCell>
        <mxCell id="J0-ND052Ys1qhIWFqs_n-29" value="Mapping" style="edgeStyle=orthogonalEdgeStyle;rounded=0;orthogonalLoop=1;jettySize=auto;html=1;entryX=0.5;entryY=0;entryDx=0;entryDy=0;" parent="WIyWlLk6GJQsqaUBKTNV-1" source="J0-ND052Ys1qhIWFqs_n-21" target="J0-ND052Ys1qhIWFqs_n-26" edge="1">
          <mxGeometry x="-0.0976" y="20" relative="1" as="geometry">
            <mxPoint as="offset" />
          </mxGeometry>
        </mxCell>
        <mxCell id="J0-ND052Ys1qhIWFqs_n-53" style="edgeStyle=orthogonalEdgeStyle;rounded=0;orthogonalLoop=1;jettySize=auto;html=1;fontSize=14;entryX=0.5;entryY=0;entryDx=0;entryDy=0;" parent="WIyWlLk6GJQsqaUBKTNV-1" source="J0-ND052Ys1qhIWFqs_n-21" target="J0-ND052Ys1qhIWFqs_n-54" edge="1">
          <mxGeometry relative="1" as="geometry">
            <mxPoint x="369" y="520" as="targetPoint" />
          </mxGeometry>
        </mxCell>
        <mxCell id="J0-ND052Ys1qhIWFqs_n-21" value="Comprehensive&lt;br&gt;Keyword&lt;br&gt;Extraction" style="rounded=0;whiteSpace=wrap;html=1;" parent="WIyWlLk6GJQsqaUBKTNV-1" vertex="1">
          <mxGeometry x="324" y="380" width="90" height="60" as="geometry" />
        </mxCell>
        <mxCell id="J0-ND052Ys1qhIWFqs_n-49" style="edgeStyle=orthogonalEdgeStyle;rounded=0;orthogonalLoop=1;jettySize=auto;html=1;entryX=0.013;entryY=0.588;entryDx=0;entryDy=0;entryPerimeter=0;fontSize=14;" parent="WIyWlLk6GJQsqaUBKTNV-1" source="J0-ND052Ys1qhIWFqs_n-26" target="J0-ND052Ys1qhIWFqs_n-48" edge="1">
          <mxGeometry relative="1" as="geometry">
            <Array as="points">
              <mxPoint x="220" y="641" />
            </Array>
          </mxGeometry>
        </mxCell>
        <mxCell id="J0-ND052Ys1qhIWFqs_n-51" value="&lt;font style=&quot;font-size: 12px&quot;&gt;Output&lt;br&gt;Pretrained Model&lt;/font&gt;" style="edgeLabel;html=1;align=center;verticalAlign=middle;resizable=0;points=[];fontSize=14;" parent="J0-ND052Ys1qhIWFqs_n-49" vertex="1" connectable="0">
          <mxGeometry x="-0.1689" relative="1" as="geometry">
            <mxPoint x="51.2" y="28.8" as="offset" />
          </mxGeometry>
        </mxCell>
        <mxCell id="J0-ND052Ys1qhIWFqs_n-26" value="Sentiment&lt;br&gt;Analysis" style="rounded=0;whiteSpace=wrap;html=1;" parent="WIyWlLk6GJQsqaUBKTNV-1" vertex="1">
          <mxGeometry x="175" y="470" width="90" height="60" as="geometry" />
        </mxCell>
        <mxCell id="J0-ND052Ys1qhIWFqs_n-31" value="&lt;font style=&quot;font-size: 16px&quot;&gt;Make Pretrained Model&lt;/font&gt;" style="text;html=1;resizable=0;autosize=1;align=center;verticalAlign=middle;points=[];fillColor=none;strokeColor=none;rounded=0;fontSize=14;labelBorderColor=none;spacingLeft=2;spacingRight=2;" parent="WIyWlLk6GJQsqaUBKTNV-1" vertex="1">
          <mxGeometry x="150" y="40" width="180" height="20" as="geometry" />
        </mxCell>
        <mxCell id="J0-ND052Ys1qhIWFqs_n-36" style="edgeStyle=orthogonalEdgeStyle;rounded=0;orthogonalLoop=1;jettySize=auto;html=1;entryX=0.5;entryY=0;entryDx=0;entryDy=0;" parent="WIyWlLk6GJQsqaUBKTNV-1" source="J0-ND052Ys1qhIWFqs_n-33" target="J0-ND052Ys1qhIWFqs_n-5" edge="1">
          <mxGeometry relative="1" as="geometry" />
        </mxCell>
        <mxCell id="J0-ND052Ys1qhIWFqs_n-33" value="Previously&lt;br&gt;Crawled&lt;br&gt;Data" style="rounded=0;whiteSpace=wrap;html=1;" parent="WIyWlLk6GJQsqaUBKTNV-1" vertex="1">
          <mxGeometry x="177" y="80" width="86" height="60" as="geometry" />
        </mxCell>
        <mxCell id="J0-ND052Ys1qhIWFqs_n-37" style="edgeStyle=orthogonalEdgeStyle;rounded=0;orthogonalLoop=1;jettySize=auto;html=1;entryX=0.5;entryY=0;entryDx=0;entryDy=0;" parent="WIyWlLk6GJQsqaUBKTNV-1" source="WIyWlLk6GJQsqaUBKTNV-6" target="J0-ND052Ys1qhIWFqs_n-5" edge="1">
          <mxGeometry relative="1" as="geometry">
            <Array as="points">
              <mxPoint x="364" y="170" />
              <mxPoint x="220" y="170" />
            </Array>
          </mxGeometry>
        </mxCell>
        <mxCell id="J0-ND052Ys1qhIWFqs_n-39" value="Yes" style="edgeLabel;html=1;align=center;verticalAlign=middle;resizable=0;points=[];fontSize=14;" parent="J0-ND052Ys1qhIWFqs_n-37" vertex="1" connectable="0">
          <mxGeometry x="-0.163" y="2" relative="1" as="geometry">
            <mxPoint x="-7" y="8" as="offset" />
          </mxGeometry>
        </mxCell>
        <mxCell id="WIyWlLk6GJQsqaUBKTNV-6" value="new Booking.com review?" style="rhombus;whiteSpace=wrap;html=1;shadow=0;fontFamily=Helvetica;fontSize=12;align=center;strokeWidth=1;spacing=6;spacingTop=-4;" parent="WIyWlLk6GJQsqaUBKTNV-1" vertex="1">
          <mxGeometry x="314" y="70" width="100" height="80" as="geometry" />
        </mxCell>
        <mxCell id="J0-ND052Ys1qhIWFqs_n-42" style="edgeStyle=orthogonalEdgeStyle;rounded=0;orthogonalLoop=1;jettySize=auto;html=1;entryX=0;entryY=0.5;entryDx=0;entryDy=0;fontSize=14;" parent="WIyWlLk6GJQsqaUBKTNV-1" source="J0-ND052Ys1qhIWFqs_n-40" target="J0-ND052Ys1qhIWFqs_n-44" edge="1">
          <mxGeometry relative="1" as="geometry" />
        </mxCell>
        <mxCell id="J0-ND052Ys1qhIWFqs_n-50" style="edgeStyle=orthogonalEdgeStyle;rounded=0;orthogonalLoop=1;jettySize=auto;html=1;entryX=1;entryY=0;entryDx=0;entryDy=52.5;entryPerimeter=0;fontSize=14;" parent="WIyWlLk6GJQsqaUBKTNV-1" source="J0-ND052Ys1qhIWFqs_n-40" target="J0-ND052Ys1qhIWFqs_n-48" edge="1">
          <mxGeometry relative="1" as="geometry">
            <Array as="points">
              <mxPoint x="515" y="250" />
              <mxPoint x="750" y="250" />
              <mxPoint x="750" y="643" />
              <mxPoint x="540" y="643" />
            </Array>
          </mxGeometry>
        </mxCell>
        <mxCell id="J0-ND052Ys1qhIWFqs_n-61" value="&lt;font style=&quot;font-size: 12px&quot;&gt;Output&lt;br&gt;Pretrained Model&lt;/font&gt;" style="edgeLabel;html=1;align=center;verticalAlign=middle;resizable=0;points=[];fontSize=14;" parent="J0-ND052Ys1qhIWFqs_n-50" vertex="1" connectable="0">
          <mxGeometry x="-0.6228" y="-2" relative="1" as="geometry">
            <mxPoint x="-17" y="-32" as="offset" />
          </mxGeometry>
        </mxCell>
        <mxCell id="J0-ND052Ys1qhIWFqs_n-40" value="Word&lt;br&gt;Embedding" style="rounded=0;whiteSpace=wrap;html=1;" parent="WIyWlLk6GJQsqaUBKTNV-1" vertex="1">
          <mxGeometry x="470" y="290" width="90" height="60" as="geometry" />
        </mxCell>
        <mxCell id="J0-ND052Ys1qhIWFqs_n-45" style="edgeStyle=orthogonalEdgeStyle;rounded=0;orthogonalLoop=1;jettySize=auto;html=1;entryX=0.5;entryY=0;entryDx=0;entryDy=0;fontSize=14;" parent="WIyWlLk6GJQsqaUBKTNV-1" source="J0-ND052Ys1qhIWFqs_n-44" target="J0-ND052Ys1qhIWFqs_n-17" edge="1">
          <mxGeometry relative="1" as="geometry" />
        </mxCell>
        <mxCell id="J0-ND052Ys1qhIWFqs_n-44" value="&lt;span style=&quot;font-family: &amp;#34;noto sans&amp;#34; , &amp;#34;noto sans jp&amp;#34; , &amp;#34;noto sans kr&amp;#34; , &amp;#34;helvetica&amp;#34; , &amp;#34;microsoft yahei&amp;#34; , &amp;#34;apple sd gothic neo&amp;#34; , &amp;#34;malgun gothic&amp;#34; , &amp;#34;맑은 고딕&amp;#34; , &amp;#34;dotum&amp;#34; , , sans-serif ; background-color: rgb(253 , 253 , 253)&quot;&gt;&lt;font style=&quot;font-size: 12px&quot;&gt;Calculate word vector means by sentences&lt;br&gt;&lt;/font&gt;&lt;/span&gt;" style="rounded=0;whiteSpace=wrap;html=1;" parent="WIyWlLk6GJQsqaUBKTNV-1" vertex="1">
          <mxGeometry x="620" y="290" width="90" height="60" as="geometry" />
        </mxCell>
        <mxCell id="J0-ND052Ys1qhIWFqs_n-92" style="edgeStyle=orthogonalEdgeStyle;rounded=0;orthogonalLoop=1;jettySize=auto;html=1;entryX=0.5;entryY=0;entryDx=0;entryDy=0;fontSize=14;" parent="WIyWlLk6GJQsqaUBKTNV-1" source="J0-ND052Ys1qhIWFqs_n-48" target="J0-ND052Ys1qhIWFqs_n-84" edge="1">
          <mxGeometry relative="1" as="geometry">
            <Array as="points">
              <mxPoint x="463" y="730" />
              <mxPoint x="525" y="730" />
            </Array>
          </mxGeometry>
        </mxCell>
        <mxCell id="J0-ND052Ys1qhIWFqs_n-93" value="&lt;font style=&quot;font-size: 12px&quot;&gt;Input Pretrained Model&lt;/font&gt;" style="edgeLabel;html=1;align=center;verticalAlign=middle;resizable=0;points=[];fontSize=14;" parent="J0-ND052Ys1qhIWFqs_n-92" vertex="1" connectable="0">
          <mxGeometry x="0.2207" y="-1" relative="1" as="geometry">
            <mxPoint x="31" y="-19.5" as="offset" />
          </mxGeometry>
        </mxCell>
        <mxCell id="J0-ND052Ys1qhIWFqs_n-94" style="edgeStyle=orthogonalEdgeStyle;rounded=0;orthogonalLoop=1;jettySize=auto;html=1;entryX=1;entryY=0.5;entryDx=0;entryDy=0;fontSize=14;" parent="WIyWlLk6GJQsqaUBKTNV-1" source="J0-ND052Ys1qhIWFqs_n-48" target="J0-ND052Ys1qhIWFqs_n-91" edge="1">
          <mxGeometry relative="1" as="geometry">
            <Array as="points">
              <mxPoint x="463" y="700" />
              <mxPoint x="660" y="700" />
              <mxPoint x="660" y="985" />
            </Array>
          </mxGeometry>
        </mxCell>
        <mxCell id="J0-ND052Ys1qhIWFqs_n-103" style="edgeStyle=orthogonalEdgeStyle;rounded=0;orthogonalLoop=1;jettySize=auto;html=1;entryX=0;entryY=0.5;entryDx=0;entryDy=0;fontSize=14;" parent="WIyWlLk6GJQsqaUBKTNV-1" source="J0-ND052Ys1qhIWFqs_n-48" target="J0-ND052Ys1qhIWFqs_n-80" edge="1">
          <mxGeometry relative="1" as="geometry">
            <Array as="points">
              <mxPoint x="463" y="700" />
              <mxPoint x="140" y="700" />
              <mxPoint x="140" y="970" />
            </Array>
          </mxGeometry>
        </mxCell>
        <mxCell id="J0-ND052Ys1qhIWFqs_n-48" value="&lt;font style=&quot;font-size: 12px&quot;&gt;Pretrained&lt;br&gt;Model&lt;br&gt;DB&lt;/font&gt;" style="shape=cylinder3;whiteSpace=wrap;html=1;boundedLbl=1;backgroundOutline=1;size=15;fontSize=14;" parent="WIyWlLk6GJQsqaUBKTNV-1" vertex="1">
          <mxGeometry x="420" y="590" width="86" height="87" as="geometry" />
        </mxCell>
        <mxCell id="J0-ND052Ys1qhIWFqs_n-60" style="edgeStyle=orthogonalEdgeStyle;rounded=0;orthogonalLoop=1;jettySize=auto;html=1;entryX=0.5;entryY=0;entryDx=0;entryDy=0;entryPerimeter=0;fontSize=14;" parent="WIyWlLk6GJQsqaUBKTNV-1" source="J0-ND052Ys1qhIWFqs_n-54" target="J0-ND052Ys1qhIWFqs_n-48" edge="1">
          <mxGeometry relative="1" as="geometry">
            <Array as="points">
              <mxPoint x="463" y="510" />
            </Array>
          </mxGeometry>
        </mxCell>
        <mxCell id="J0-ND052Ys1qhIWFqs_n-54" value="&lt;font style=&quot;font-size: 12px&quot;&gt;Comprehensive&lt;br&gt;Keywords&lt;/font&gt;" style="rounded=0;whiteSpace=wrap;html=1;fontSize=14;" parent="WIyWlLk6GJQsqaUBKTNV-1" vertex="1">
          <mxGeometry x="319" y="480" width="101" height="60" as="geometry" />
        </mxCell>
        <mxCell id="J0-ND052Ys1qhIWFqs_n-59" value="Mapping" style="edgeStyle=orthogonalEdgeStyle;rounded=0;orthogonalLoop=1;jettySize=auto;html=1;entryX=0.5;entryY=0;entryDx=0;entryDy=0;entryPerimeter=0;fontSize=14;" parent="WIyWlLk6GJQsqaUBKTNV-1" source="J0-ND052Ys1qhIWFqs_n-55" target="J0-ND052Ys1qhIWFqs_n-48" edge="1">
          <mxGeometry x="0.6624" y="37" relative="1" as="geometry">
            <mxPoint as="offset" />
          </mxGeometry>
        </mxCell>
        <mxCell id="J0-ND052Ys1qhIWFqs_n-55" value="&lt;font style=&quot;font-size: 12px&quot;&gt;Clustered&lt;br&gt;Centroids&lt;/font&gt;" style="rounded=0;whiteSpace=wrap;html=1;fontSize=14;" parent="WIyWlLk6GJQsqaUBKTNV-1" vertex="1">
          <mxGeometry x="620" y="480" width="90" height="60" as="geometry" />
        </mxCell>
        <mxCell id="J0-ND052Ys1qhIWFqs_n-102" style="edgeStyle=orthogonalEdgeStyle;rounded=0;orthogonalLoop=1;jettySize=auto;html=1;entryX=0.5;entryY=0;entryDx=0;entryDy=0;fontSize=14;" parent="WIyWlLk6GJQsqaUBKTNV-1" source="J0-ND052Ys1qhIWFqs_n-62" target="J0-ND052Ys1qhIWFqs_n-80" edge="1">
          <mxGeometry relative="1" as="geometry" />
        </mxCell>
        <mxCell id="J0-ND052Ys1qhIWFqs_n-62" value="&lt;font style=&quot;font-size: 12px&quot;&gt;Input&lt;br&gt;Review&lt;br&gt;Text&lt;/font&gt;" style="shape=parallelogram;html=1;strokeWidth=2;perimeter=parallelogramPerimeter;whiteSpace=wrap;rounded=1;arcSize=12;size=0.23;fontSize=14;" parent="WIyWlLk6GJQsqaUBKTNV-1" vertex="1">
          <mxGeometry x="180" y="760" width="100" height="60" as="geometry" />
        </mxCell>
        <mxCell id="J0-ND052Ys1qhIWFqs_n-63" style="edgeStyle=orthogonalEdgeStyle;rounded=0;orthogonalLoop=1;jettySize=auto;html=1;entryX=0;entryY=0.5;entryDx=0;entryDy=0;" parent="WIyWlLk6GJQsqaUBKTNV-1" target="J0-ND052Ys1qhIWFqs_n-69" edge="1">
          <mxGeometry relative="1" as="geometry">
            <mxPoint x="265" y="790" as="sourcePoint" />
          </mxGeometry>
        </mxCell>
        <mxCell id="J0-ND052Ys1qhIWFqs_n-68" style="edgeStyle=orthogonalEdgeStyle;rounded=0;orthogonalLoop=1;jettySize=auto;html=1;entryX=0;entryY=0.5;entryDx=0;entryDy=0;fontSize=14;" parent="WIyWlLk6GJQsqaUBKTNV-1" source="J0-ND052Ys1qhIWFqs_n-69" target="J0-ND052Ys1qhIWFqs_n-84" edge="1">
          <mxGeometry relative="1" as="geometry" />
        </mxCell>
        <mxCell id="J0-ND052Ys1qhIWFqs_n-69" value="Tokenizing" style="rounded=0;whiteSpace=wrap;html=1;" parent="WIyWlLk6GJQsqaUBKTNV-1" vertex="1">
          <mxGeometry x="333.5" y="760" width="90" height="60" as="geometry" />
        </mxCell>
        <mxCell id="J0-ND052Ys1qhIWFqs_n-105" style="edgeStyle=orthogonalEdgeStyle;rounded=0;orthogonalLoop=1;jettySize=auto;html=1;entryX=0.5;entryY=0;entryDx=0;entryDy=0;fontSize=14;" parent="WIyWlLk6GJQsqaUBKTNV-1" source="J0-ND052Ys1qhIWFqs_n-80" target="J0-ND052Ys1qhIWFqs_n-104" edge="1">
          <mxGeometry relative="1" as="geometry" />
        </mxCell>
        <mxCell id="J0-ND052Ys1qhIWFqs_n-80" value="Pretrained&lt;br&gt;Sentiment&lt;br&gt;Analysis" style="rounded=0;whiteSpace=wrap;html=1;" parent="WIyWlLk6GJQsqaUBKTNV-1" vertex="1">
          <mxGeometry x="185" y="940" width="90" height="60" as="geometry" />
        </mxCell>
        <mxCell id="J0-ND052Ys1qhIWFqs_n-81" style="edgeStyle=orthogonalEdgeStyle;rounded=0;orthogonalLoop=1;jettySize=auto;html=1;entryX=0.5;entryY=0;entryDx=0;entryDy=0;fontSize=14;" parent="WIyWlLk6GJQsqaUBKTNV-1" source="J0-ND052Ys1qhIWFqs_n-84" target="J0-ND052Ys1qhIWFqs_n-86" edge="1">
          <mxGeometry relative="1" as="geometry">
            <Array as="points" />
          </mxGeometry>
        </mxCell>
        <mxCell id="J0-ND052Ys1qhIWFqs_n-84" value="Word&lt;br&gt;Embedding" style="rounded=0;whiteSpace=wrap;html=1;" parent="WIyWlLk6GJQsqaUBKTNV-1" vertex="1">
          <mxGeometry x="480" y="760" width="90" height="60" as="geometry" />
        </mxCell>
        <mxCell id="J0-ND052Ys1qhIWFqs_n-99" style="edgeStyle=orthogonalEdgeStyle;rounded=0;orthogonalLoop=1;jettySize=auto;html=1;entryX=1;entryY=0.5;entryDx=0;entryDy=0;fontSize=14;" parent="WIyWlLk6GJQsqaUBKTNV-1" source="J0-ND052Ys1qhIWFqs_n-86" target="J0-ND052Ys1qhIWFqs_n-98" edge="1">
          <mxGeometry relative="1" as="geometry">
            <Array as="points">
              <mxPoint x="470" y="880" />
              <mxPoint x="470" y="880" />
            </Array>
          </mxGeometry>
        </mxCell>
        <mxCell id="J0-ND052Ys1qhIWFqs_n-86" value="&lt;span style=&quot;font-family: &amp;#34;noto sans&amp;#34; , &amp;#34;noto sans jp&amp;#34; , &amp;#34;noto sans kr&amp;#34; , &amp;#34;helvetica&amp;#34; , &amp;#34;microsoft yahei&amp;#34; , &amp;#34;apple sd gothic neo&amp;#34; , &amp;#34;malgun gothic&amp;#34; , &amp;#34;맑은 고딕&amp;#34; , &amp;#34;dotum&amp;#34; , , sans-serif ; background-color: rgb(253 , 253 , 253)&quot;&gt;&lt;font style=&quot;font-size: 12px&quot;&gt;Calculate word vector means by sentences&lt;br&gt;&lt;/font&gt;&lt;/span&gt;" style="rounded=0;whiteSpace=wrap;html=1;" parent="WIyWlLk6GJQsqaUBKTNV-1" vertex="1">
          <mxGeometry x="480" y="850" width="90" height="60" as="geometry" />
        </mxCell>
        <mxCell id="J0-ND052Ys1qhIWFqs_n-97" style="edgeStyle=orthogonalEdgeStyle;rounded=0;orthogonalLoop=1;jettySize=auto;html=1;fontSize=14;entryX=1;entryY=0.5;entryDx=0;entryDy=0;exitX=0;exitY=0.5;exitDx=0;exitDy=0;" parent="WIyWlLk6GJQsqaUBKTNV-1" source="J0-ND052Ys1qhIWFqs_n-91" target="J0-ND052Ys1qhIWFqs_n-98" edge="1">
          <mxGeometry relative="1" as="geometry">
            <mxPoint x="490" y="870" as="targetPoint" />
            <Array as="points">
              <mxPoint x="450" y="985" />
              <mxPoint x="450" y="880" />
            </Array>
          </mxGeometry>
        </mxCell>
        <mxCell id="J0-ND052Ys1qhIWFqs_n-91" value="&lt;font style=&quot;font-size: 12px&quot;&gt;&lt;span style=&quot;font-family: &amp;#34;noto sans&amp;#34; , &amp;#34;noto sans jp&amp;#34; , &amp;#34;noto sans kr&amp;#34; , &amp;#34;helvetica&amp;#34; , &amp;#34;microsoft yahei&amp;#34; , &amp;#34;apple sd gothic neo&amp;#34; , &amp;#34;malgun gothic&amp;#34; , &amp;#34;맑은 고딕&amp;#34; , &amp;#34;dotum&amp;#34; , , sans-serif ; background-color: rgb(253 , 253 , 253)&quot;&gt;Mapping data for keywords and clustered centroids&lt;/span&gt;&lt;br&gt;&lt;/font&gt;" style="rounded=0;whiteSpace=wrap;html=1;fontSize=14;" parent="WIyWlLk6GJQsqaUBKTNV-1" vertex="1">
          <mxGeometry x="480" y="930" width="90" height="110" as="geometry" />
        </mxCell>
        <mxCell id="J0-ND052Ys1qhIWFqs_n-100" value="&lt;font style=&quot;font-size: 12px&quot;&gt;Mapping&lt;/font&gt;" style="edgeStyle=orthogonalEdgeStyle;rounded=0;orthogonalLoop=1;jettySize=auto;html=1;entryX=0.5;entryY=0;entryDx=0;entryDy=0;fontSize=14;" parent="WIyWlLk6GJQsqaUBKTNV-1" source="J0-ND052Ys1qhIWFqs_n-98" target="J0-ND052Ys1qhIWFqs_n-80" edge="1">
          <mxGeometry x="-0.0345" y="20" relative="1" as="geometry">
            <mxPoint as="offset" />
          </mxGeometry>
        </mxCell>
        <mxCell id="J0-ND052Ys1qhIWFqs_n-98" value="&lt;font style=&quot;font-size: 12px&quot;&gt;Most&lt;br&gt;Similar&lt;br&gt;Keyword&lt;br&gt;&lt;/font&gt;" style="whiteSpace=wrap;html=1;aspect=fixed;fontSize=14;" parent="WIyWlLk6GJQsqaUBKTNV-1" vertex="1">
          <mxGeometry x="354" y="850" width="60" height="60" as="geometry" />
        </mxCell>
        <mxCell id="J0-ND052Ys1qhIWFqs_n-104" value="&lt;font style=&quot;font-size: 12px&quot;&gt;Output&lt;/font&gt;" style="rounded=0;whiteSpace=wrap;html=1;fontSize=14;" parent="WIyWlLk6GJQsqaUBKTNV-1" vertex="1">
          <mxGeometry x="182.5" y="1040" width="95" height="60" as="geometry" />
        </mxCell>
      </root>
    </mxGraphModel>
  </diagram>
</mxfile>
